<svg width="20" height="20" viewBox="0 0 20 20" fill="none" xmlns="http://www.w3.org/2000/svg">
<path d="M0 4.21053C0 1.88512 1.88512 0 4.21053 0L15.7895 0C18.1149 0 20 1.88512 20 4.21053V15.7895C20 18.1149 18.1149 20 15.7895 20H4.21053C1.88512 20 0 18.1149 0 15.7895L0 4.21053Z" fill="#FBF8E5"/>
<path fill-rule="evenodd" clip-rule="evenodd" d="M14.2705 9.36846C14.849 8.51472 15.2272 7.44741 15.3637 6.21816C15.3637 3.23583 12.9216 0.818176 9.90914 0.818176C6.89667 0.818176 4.45459 3.23583 4.45459 6.21816C4.60916 7.53559 5.07358 8.70871 5.78787 9.62218L5.81825 9.66793L9.89914 15.3636L14.091 9.66793L14.2705 9.36846Z" fill="#FE1004"/>
<path fill-rule="evenodd" clip-rule="evenodd" d="M12.67 9.34016C13.0371 8.68879 13.2771 7.87412 13.3637 6.93566C13.3637 4.66164 11.817 2.81818 9.90914 2.81818C8.00124 2.81818 6.45459 4.66164 6.45459 6.93566C6.55241 7.93938 6.84613 8.83324 7.29789 9.52951L7.31808 9.56612L9.90264 13.9091L12.5575 9.56613L12.67 9.34016Z" fill="#FBF8E5"/>
<path d="M11.7274 8.27271C11.7274 9.27687 10.9134 10.0909 9.90925 10.0909C8.90509 10.0909 8.09106 9.27687 8.09106 8.27271C8.09106 7.26856 8.90509 6.45453 9.90925 6.45453C10.9134 6.45453 11.7274 7.26856 11.7274 8.27271Z" fill="#161C37"/>
<ellipse cx="10" cy="18.2727" rx="1" ry="0.909091" fill="#FE1004"/>
<path d="M16.818 9.27271C16.818 11.2016 16.0997 13.0514 14.821 14.4153C13.5423 15.7792 11.8081 16.5454 9.99982 16.5454C8.19153 16.5454 6.4573 15.7792 5.17864 14.4153C3.89998 13.0514 3.18164 11.2016 3.18164 9.27271V8.27271C3.18164 9.96055 4.66213 12.5793 5.78103 13.7728C6.89992 14.9662 8.41747 15.6367 9.99982 15.6367C11.5822 15.6367 13.0997 14.9662 14.2186 13.7728C15.3375 12.5793 16.818 9.96055 16.818 8.27271V9.27271Z" fill="#FE1004"/>
</svg>
