<?xml version="1.0" encoding="UTF-8"?>
<svg version="1.1" xmlns="http://www.w3.org/2000/svg" width="110" height="110">
<path d="M0 0 C36.3 0 72.6 0 110 0 C110 36.3 110 72.6 110 110 C73.7 110 37.4 110 0 110 C0 73.7 0 37.4 0 0 Z " fill="#FBF6E3" transform="translate(0,0)"/>
<path d="M0 0 C0.70253906 0.00829834 1.40507813 0.01659668 2.12890625 0.02514648 C10.91057191 0.31022597 16.99907096 3.43162299 23.328125 9.40625 C29.13724293 15.97307897 30.95490653 22.53308811 30.51953125 31.23046875 C28.26363233 49.56802333 12.05780252 65.34829159 1.125 79.4375 C-3.31966129 75.29851244 -6.7466171 70.69709873 -10.25 65.75 C-10.82290771 64.9470752 -11.39581543 64.14415039 -11.98608398 63.31689453 C-13.11469951 61.73340643 -14.24131742 60.14849223 -15.36572266 58.56201172 C-16.61289214 56.80645221 -17.87309677 55.06016094 -19.13671875 53.31640625 C-26.5713348 42.97890323 -30.0546418 34.38580355 -28.875 21.4375 C-26.68412621 13.6037903 -21.50779702 7.9674702 -14.875 3.4375 C-9.87453718 0.86617196 -5.57287291 -0.08523059 0 0 Z " fill="#FD170A" transform="translate(53.875,4.5625)"/>
<path d="M0 0 C5.28224007 2.15202373 8.12456515 6.14725159 10.859375 11.01953125 C13.55014737 18.0505563 13.21747792 25.51847415 10.2734375 32.390625 C8.10125018 36.97435778 5.60994748 41.34154199 3 45.6875 C2.57460938 46.40744141 2.14921875 47.12738281 1.7109375 47.86914062 C-0.74317247 51.99821828 -3.29824227 56.0286663 -6 60 C-10.1830147 56.17466111 -12.65223435 51.15243874 -15.5 46.3125 C-16.08136719 45.34376953 -16.66273437 44.37503906 -17.26171875 43.37695312 C-22.99332787 33.67781137 -26.52623508 25.51875532 -25 14 C-20.67429963 2.46479901 -11.53180609 -1.01395145 0 0 Z " fill="#F8F3E0" transform="translate(61,16)"/>
<path d="M0 0 C2.45810464 3.03309987 4.02289251 6.07413019 5.625 9.625 C10.52932723 19.48173611 16.81070934 26.46041294 26.953125 31.00390625 C35.17201187 33.69085004 43.13220261 32.20282017 51 29 C62.61656296 22.95938726 67.77998127 11.31466827 73 0 C73.33 0 73.66 0 74 0 C74.79682296 8.96425834 71.32708907 17.26348504 65.69140625 24.15625 C58.67923983 31.79999723 50.6984836 37.36367547 40.1171875 38.23828125 C28.1337358 38.51260123 19.43332154 35.03804313 10.5 27 C5.50564813 21.89466253 0.2511018 13.25304975 -0.09765625 5.95703125 C-0.06510417 3.97135417 -0.03255208 1.98567708 0 0 Z " fill="#FD1D10" transform="translate(18,53)"/>
<path d="M0 0 C3.0625 1.9375 3.0625 1.9375 5 5 C6.03945854 9.75058323 5.669717 12.94141507 3.0625 17.0625 C-1.05858493 19.669717 -4.24941677 20.03945854 -9 19 C-12.0625 17.0625 -12.0625 17.0625 -14 14 C-15.03945854 9.24941677 -14.669717 6.05858493 -12.0625 1.9375 C-7.94141507 -0.669717 -4.75058323 -1.03945854 0 0 Z " fill="#041112" transform="translate(59,36)"/>
<path d="M0 0 C3 0.25 3 0.25 5 2.25 C5.25 4.75 5.25 4.75 5 7.25 C3 9.25 3 9.25 0 9.5 C-3 9.25 -3 9.25 -5 7.25 C-5.25 4.75 -5.25 4.75 -5 2.25 C-3 0.25 -3 0.25 0 0 Z " fill="#FE1105" transform="translate(55,95.75)"/>
</svg>
