<svg width="24" height="24" viewBox="0 0 24 24" fill="none" xmlns="http://www.w3.org/2000/svg">
<path d="M18 11C17.6 14.6384 15.3137 17 12 17C8.68629 17 6.4 14.4437 6 11C6 7.68629 8.68629 5 12 5C15.3137 5 18 7.68629 18 11Z" fill="#FF756F"/>
<path d="M12 20C13 20 18 16 18 11.8093C18 7.61853 12.0003 11.809 12.0003 11.809C12.0003 11.809 6 7.61803 6 11.809C6 16 11 20 12 20Z" fill="#FF756F"/>
<path d="M14.75 11C14.75 12.5188 13.5188 13.75 12 13.75C10.4812 13.75 9.25 12.5188 9.25 11C9.25 9.48122 10.4812 8.25 12 8.25C13.5188 8.25 14.75 9.48122 14.75 11Z" fill="black" stroke="#FBF8E5" stroke-width="0.5"/>
<rect x="6" y="11" width="1" height="1" fill="#FF756F"/>
<rect x="17" y="11" width="1" height="1" fill="#FF756F"/>
</svg>